<svg xmlns:dc="http://purl.org/dc/elements/1.1/" xmlns:cc="http://creativecommons.org/ns#" xmlns:rdf="http://www.w3.org/1999/02/22-rdf-syntax-ns#" xmlns:svg="http://www.w3.org/2000/svg" xmlns="http://www.w3.org/2000/svg" xmlns:sodipodi="http://sodipodi.sourceforge.net/DTD/sodipodi-0.dtd" xmlns:inkscape="http://www.inkscape.org/namespaces/inkscape" version="1.1" width="82" height="90"><rect id="backgroundrect" width="100%" height="100%" x="0" y="0" fill="none" stroke="none" class=""/><g class="currentLayer"><title>Layer 1</title><g id="svg_1" class=""><path style="font-size:medium;font-style:normal;font-variant:normal;font-weight:normal;font-stretch:normal;text-indent:0;text-align:start;text-decoration:none;line-height:normal;letter-spacing:normal;word-spacing:normal;text-transform:none;direction:ltr;block-progression:tb;writing-mode:lr-tb;text-anchor:start;baseline-shift:baseline;opacity:1;color:#ffffff;fill:#ffffff;fill-opacity:1;stroke:none;stroke-width:6;marker:none;visibility:visible;display:inline;overflow:visible;enable-background:accumulate;font-family:Sans;-inkscape-font-specification:Sans" d="M20.828125,0.2190389633178711 A3.0003,3.0003 0 0 0 18.953125,1.250288963317871 L1.953125,21.25028896331787 A3.0031315,3.0031315 0 1 0 6.515625,25.15653896331787 L18.234375,11.375288963317871 L18.234375,77.21903896331787 C18.211965,78.80393896331793 19.649279,80.28153896331787 21.234375,80.28153896331787 C22.819471,80.28153896331787 24.256790000000002,78.80393896331793 24.234375,77.21903896331787 L24.234375,11.375288963317871 L35.953125,25.15653896331787 A3.0031315,3.0031315 0 1 0 40.515625,21.25028896331787 L23.515625,1.250288963317871 A3.0003,3.0003 0 0 0 20.828125,0.2190389633178711 zM61.203125,10.156538963317871 C59.621768,10.172838963317872 58.201505999999995,11.637938963317879 58.234375,13.219038963317871 L58.234375,79.03153896331787 L46.515625,65.25028896331787 A3.0003,3.0003 0 0 0 43.859375,64.18778896331787 A3.0003,3.0003 0 0 0 41.953125,69.15653896331787 L58.953125,89.15653896331787 A3.0003,3.0003 0 0 0 63.515625,89.15653896331787 L80.515625,69.15653896331787 A3.0031478,3.0031478 0 1 0 75.953125,65.25028896331787 L64.234375,79.03153896331787 L64.234375,13.219038963317871 C64.267685,11.617108963317833 62.805313,10.139668963317831 61.203125,10.156538963317871 z" id="svg_2"/></g></g></svg>
