<svg xmlns:dc="http://purl.org/dc/elements/1.1/" xmlns:cc="http://creativecommons.org/ns#" xmlns:rdf="http://www.w3.org/1999/02/22-rdf-syntax-ns#" xmlns:svg="http://www.w3.org/2000/svg" xmlns="http://www.w3.org/2000/svg" xmlns:sodipodi="http://sodipodi.sourceforge.net/DTD/sodipodi-0.dtd" xmlns:inkscape="http://www.inkscape.org/namespaces/inkscape" version="1.1" width="34" height="33"><rect id="backgroundrect" width="100%" height="100%" x="0" y="0" fill="none" stroke="none" class=""/><g class="currentLayer"><title>Layer 1</title><g id="svg_1" class=""><path style="font-size:medium;font-style:normal;font-variant:normal;font-weight:normal;font-stretch:normal;text-indent:0;text-align:start;text-decoration:none;line-height:normal;letter-spacing:normal;word-spacing:normal;text-transform:none;direction:ltr;block-progression:tb;writing-mode:lr-tb;text-anchor:start;baseline-shift:baseline;opacity:1;color:#ffffff;fill:#ffffff;fill-opacity:1;stroke:none;stroke-width:3.99999976000000010;marker:none;visibility:visible;display:inline;overflow:visible;enable-background:accumulate;font-family:Sans;-inkscape-font-specification:Sans" d="M16.73337612834164,0.005812964953662458 C7.500996968026399,0.005812964953662458 0,7.506813435314619 0,16.739189093295295 C0,25.971576425724464 7.500997746322962,33.47256522163694 16.73337612834164,33.47256522163694 C25.96576229332596,33.47256522163694 33.46675225668328,25.971576425724464 33.46675225668328,16.739189093295295 C33.46675225668328,12.75312767428025 31.777538561386137,8.822957288126943 29.380695295111483,5.855198079584717 L33.320821650912855,6.597011992251026 A0.7783743159356674,0.7783743159356674 0 1 0 33.6126828624537,5.076901515475804 L27.38631034958239,3.9094566693124335 A0.7783743159356674,0.7783743159356674 0 0 0 27.15525355711256,3.8972957854982297 A0.7783743159356674,0.7783743159356674 0 0 0 26.462083179703058,4.578305279093534 L25.683786615594144,10.80467779196485 A0.7843534236301218,0.7843534236301218 0 0 0 27.24037974381197,10.999251932992067 L27.811941283079456,6.414598735037998 C30.17774452578432,9.173145211626924 31.91015912846545,13.012678682258667 31.91015912846545,16.739189093295295 C31.91015912846545,25.130315669579176 25.12451943800161,31.915972093419114 16.73337612834164,31.915972093419114 C8.342240601647312,31.915972093419114 1.556593128217827,25.130315669579176 1.556593128217827,16.739189093295295 C1.556593128217827,8.348058625528644 8.342241379943877,1.5624060931714894 16.73337612834164,1.5624060931714894 C17.144559153570867,1.5682044025741106 17.523833576264753,1.195334193157997 17.523833576264753,0.7841095290625759 C17.523833576264753,0.372884864967169 17.144559153570867,-9.103802369736513e-7 16.73337612834164,0.005812964953662458 zM16.25910165958777,6.147059291125558 A0.7783743548504961,0.7783743548504961 0 0 0 15.565931282178271,6.937516739048675 L15.565931282178271,17.906633939458672 A0.7783743548504961,0.7783743548504961 0 0 0 16.344227846287183,18.684930503567585 L24.82036386478582,18.684930503567585 A0.7783743548504961,0.7783743548504961 0 1 0 24.82036386478582,17.12833737534976 L17.122524410396096,17.12833737534976 L17.122524410396096,6.937516739048675 A0.7783743548504961,0.7783743548504961 0 0 0 16.25910165958777,6.147059291125558 z" id="svg_2"/></g></g></svg>