<svg xmlns="http://www.w3.org/2000/svg" xmlns:xlink="http://www.w3.org/1999/xlink" version="1.1" style="enable-background:new 0 0 24 24;" xml:space="preserve" width="20" height="24"><rect id="backgroundrect" width="100%" height="100%" x="0" y="0" fill="none" stroke="none"/><g class="currentLayer"><title>Layer 1</title><g id="svg_1" class="selected" fill="#ffffff" fill-opacity="1"><g id="svg_2" fill="#ffffff" fill-opacity="1"><path d="M0.5610001087188721,24.06300024688244 c-0.11200000000000002,0 -0.22500000000000003,-0.038000000000000006 -0.31800000000000006,-0.11500000000000002 c-0.21300000000000002,-0.17600000000000002 -0.24300000000000002,-0.49100000000000005 -0.06700000000000002,-0.7040000000000001 l19,-23 c0.17500000000000002,-0.21300000000000002 0.49000000000000005,-0.24400000000000002 0.7040000000000001,-0.06700000000000002 c0.21300000000000002,0.17600000000000002 0.24300000000000002,0.49100000000000005 0.06700000000000002,0.7040000000000001 l-19,23 C0.848000108718872,24.001000246882437 0.7050001087188722,24.06300024688244 0.5610001087188721,24.06300024688244 z" id="svg_3" fill="#ffffff" fill-opacity="1"/></g><g id="svg_4" fill="#ffffff" fill-opacity="1"><path d="M9.561000108718872,13.063000246882439 C5.425000108718872,13.063000246882439 2.061000108718872,10.596000246882438 2.061000108718872,7.563000246882439 c0,-2.91 3.097,-5.298 7,-5.488 V1.5630002468824387 C9.061000108718872,1.2870002468824386 9.285000108718872,1.0630002468824387 9.561000108718872,1.0630002468824387 S10.061000108718872,1.2870002468824386 10.061000108718872,1.5630002468824387 v0.51 c1.908,0.07900000000000001 3.52,0.6120000000000001 4.797,1.589 c0.21900000000000003,0.16700000000000004 0.261,0.48100000000000004 0.09300000000000003,0.7010000000000001 c-0.16700000000000004,0.22000000000000003 -0.48100000000000004,0.262 -0.7010000000000001,0.09300000000000003 C13.149000108718871,3.614000246882439 11.742000108718873,3.150000246882439 10.061000108718872,3.074000246882439 V12.563000246882439 C10.061000108718872,12.839000246882438 9.837000108718872,13.063000246882439 9.561000108718872,13.063000246882439 zM9.061000108718872,3.0760002468824386 C5.709000108718872,3.2540002468824385 3.061000108718872,5.1980002468824384 3.061000108718872,7.563000246882439 s2.648,4.3100000000000005 6,4.487 V3.0760002468824386 z" id="svg_5" fill="#ffffff" fill-opacity="1"/></g><g id="svg_6" fill="#ffffff" fill-opacity="1"><path d="M9.561000108718872,24.06300024688244 c-0.276,0 -0.5,-0.22400000000000003 -0.5,-0.5 v-0.51 c-1.908,-0.07900000000000001 -3.52,-0.6120000000000001 -4.797,-1.589 C4.045000108718872,21.29700024688244 4.003000108718872,20.98300024688244 4.171000108718872,20.763000246882438 s0.48100000000000004,-0.26 0.7010000000000001,-0.09300000000000003 c1.101,0.8420000000000001 2.509,1.306 4.189,1.3820000000000001 V12.563000246882439 c0,-0.276 0.22400000000000003,-0.5 0.5,-0.5 c4.136,0 7.5,2.467 7.5,5.5 c0,2.91 -3.097,5.298 -7,5.488 V23.56300024688244 C10.061000108718872,23.83900024688244 9.837000108718872,24.06300024688244 9.561000108718872,24.06300024688244 zM10.061000108718872,13.076000246882439 v8.974 c3.352,-0.17700000000000002 6,-2.122 6,-4.487 S13.413000108718872,13.25400024688244 10.061000108718872,13.076000246882439 z" id="svg_7" fill="#ffffff" fill-opacity="1"/></g></g></g></svg>